<svg width="513" height="386" viewBox="0 0 513 386" fill="none" xmlns="http://www.w3.org/2000/svg">
<path d="M119.816 234.408C119.138 236.844 118.962 238.482 119.206 240.445C119.531 243.03 120.439 244.208 121.931 244.113C123.422 244.018 123.965 242.719 123.653 240.215C123.314 237.467 122.27 235.924 119.816 234.408Z" fill="#204D8F"/>
<path d="M358.518 147.064C354.464 148.038 357.243 175.488 358.708 189.47C360.172 203.439 363.887 230.835 367.25 230.645C370.612 230.456 368.538 202.464 367.046 188.239C365.568 173.999 362.558 146.089 358.518 147.064Z" fill="#204D8F"/>
<path d="M189.467 206.268C187.149 206.674 187.067 216.446 188.003 224.554C188.938 232.662 190.335 242.204 193.603 242.028C196.884 241.852 196.03 232.039 195.067 223.742C194.104 215.445 191.772 205.862 189.467 206.268Z" fill="#204D8F"/>
<mask id="path-4-outside-1" maskUnits="userSpaceOnUse" x="0.795715" y="0" width="513" height="386" fill="black">
<rect fill="white" x="0.795715" width="513" height="386"/>
<path d="M503.339 297.443C501.983 285.261 468.086 30.7943 466.73 24.0266C465.375 17.2589 463.056 11.2491 458.107 9.51658C453.158 7.78405 443.952 10.7754 438.23 13.0899C301.951 68.2198 165.658 123.336 29.3654 178.452C15.0745 184.232 5.78671 190.891 11.5085 207.012C27.5485 252.153 43.6021 316.243 59.6421 361.384C61.6895 367.123 64.4148 373.579 70.218 375.488C75.5059 377.234 81.4175 374.229 84.7665 369.789C88.1155 365.35 89.4578 359.773 90.7324 354.359C94.6102 337.846 98.488 321.319 102.379 304.806C103.098 301.72 104.047 298.309 106.759 296.657C109.104 295.223 112.074 295.534 114.799 295.899C163.285 302.275 453.172 324.513 458.595 324.513C464.019 324.513 487.069 327.22 495.204 321.806C503.339 316.392 504.695 309.624 503.339 297.443ZM85.3224 265.539L81.8378 239.565L83.6547 239.389L81.2819 221.63L79.0176 222.077L76.2787 201.679C78.6922 200.163 80.6446 197.578 82.0683 193.923L92.1018 190.458L98.2846 237.941L100.101 237.765L103.803 266.338L85.3224 265.539ZM125.172 269.208C113.43 268.612 106.311 259.949 104.237 243.829C103.112 235.139 104.061 228.953 107.071 225.068L107.016 224.595C104.074 221.522 102.135 216.446 101.213 209.3C99.2744 194.221 103.64 184.476 114.081 180.781C124.521 177.072 131.015 184.219 133.144 201.544C134.12 209.543 133.673 215.472 131.68 219.587L131.761 220.236C135.68 224.08 138.215 231.227 139.449 241.27C141.768 260.464 136.873 269.803 125.172 269.208ZM169.156 271.441C161.048 271.021 157.238 264.321 155.069 246.387L152.465 224.744L150.743 224.974L146.92 193.301C149.455 191.162 150.215 184.435 149.51 170.602L159.909 167.001L162.011 184.733L166.783 183.42L171.366 222.28L166.539 222.916L167.055 227.275C167.516 231.187 168.316 232.323 169.848 232.188C170.363 232.134 171.082 231.917 171.922 231.065L177.047 268.504C175.231 270.548 172.505 271.617 169.156 271.441ZM197.182 272.876C186.43 272.334 178.444 255.456 174.987 226.057C171.529 196.658 175.448 178.425 185.901 175.434C196.355 172.443 204.341 189.308 208.097 222.24C211.853 255.185 207.934 273.417 197.182 272.876ZM225.642 271.454L221.303 233.122C231.337 218.057 234.415 204.278 232.15 184.056C231.093 174.608 229.371 168.057 226.998 165.039L225.113 166.338C226.184 168.341 227.418 174.175 228.245 181.66C230.157 198.674 230.333 209.489 225.642 210.166C220.815 210.87 216.815 200.502 214.89 183.447C212.165 159.395 216.259 144.492 226.754 140.77C237.289 137.034 244.028 149.635 247.255 178.696C249.031 194.708 248.543 204.833 244.719 217.056L240.421 224.92L241.357 233.325L244.76 233.081C246.956 232.919 247.973 230.293 248.258 224.757L251.661 224.432L257.017 272.781L225.642 271.454ZM273.762 276.774C270.088 276.584 266.386 274.581 262.63 270.223L258.292 223.593C260.691 226.625 263.932 228.209 266.305 228.019C271.294 227.613 273.532 219.181 272.596 207.175L272.406 206.769C271.457 215.797 269.383 220.02 265.844 220.385C259.186 221.062 253.777 207.486 250.997 182.337C247.58 151.409 251.363 132.026 260.976 128.615C272.596 124.487 281.897 149.108 287.05 196.779C292.595 247.943 288.189 277.518 273.762 276.774ZM330.533 275.881L309.869 173.092L309.679 173.133L317.042 241.988L318.913 241.92L322.506 275.556L305.774 274.852L301.571 235.816L305.313 235.613L297.246 160.396L293.571 161.289L289.368 122.253L311.171 114.714L322.764 189.944L322.953 189.917L316.648 112.819L331.021 107.852L335.577 151.043L330.058 152.397L343.183 276.408L330.533 275.881ZM372.605 281.809C360.769 281.2 350.735 248.756 344.702 191.541C338.668 134.34 341.719 99.9469 353.162 95.8727C364.606 91.8121 374.639 124.27 381.066 186.127C387.493 248.025 384.456 282.418 372.605 281.809ZM429.308 280.036L417.444 219.844L417.255 219.857L417.702 279.549L405.025 279.021L385.202 161.506L383.358 161.872L376.144 92.2587L392.795 86.5062L400.225 158.542L409.268 209.801L409.458 209.787L405.906 157.418L403.926 157.811L396.455 85.2474L411.506 80.0498L419.166 154.792L428.332 208L428.522 207.987L424.807 153.683L422.868 154.062L415.166 78.7774L432.359 72.8354L440.277 150.61L436.494 151.354L442.108 280.564L429.308 280.036Z"/>
</mask>
<path d="M503.339 297.443C501.983 285.261 468.086 30.7943 466.73 24.0266C465.375 17.2589 463.056 11.2491 458.107 9.51658C453.158 7.78405 443.952 10.7754 438.23 13.0899C301.951 68.2198 165.658 123.336 29.3654 178.452C15.0745 184.232 5.78671 190.891 11.5085 207.012C27.5485 252.153 43.6021 316.243 59.6421 361.384C61.6895 367.123 64.4148 373.579 70.218 375.488C75.5059 377.234 81.4175 374.229 84.7665 369.789C88.1155 365.35 89.4578 359.773 90.7324 354.359C94.6102 337.846 98.488 321.319 102.379 304.806C103.098 301.72 104.047 298.309 106.759 296.657C109.104 295.223 112.074 295.534 114.799 295.899C163.285 302.275 453.172 324.513 458.595 324.513C464.019 324.513 487.069 327.22 495.204 321.806C503.339 316.392 504.695 309.624 503.339 297.443ZM85.3224 265.539L81.8378 239.565L83.6547 239.389L81.2819 221.63L79.0176 222.077L76.2787 201.679C78.6922 200.163 80.6446 197.578 82.0683 193.923L92.1018 190.458L98.2846 237.941L100.101 237.765L103.803 266.338L85.3224 265.539ZM125.172 269.208C113.43 268.612 106.311 259.949 104.237 243.829C103.112 235.139 104.061 228.953 107.071 225.068L107.016 224.595C104.074 221.522 102.135 216.446 101.213 209.3C99.2744 194.221 103.64 184.476 114.081 180.781C124.521 177.072 131.015 184.219 133.144 201.544C134.12 209.543 133.673 215.472 131.68 219.587L131.761 220.236C135.68 224.08 138.215 231.227 139.449 241.27C141.768 260.464 136.873 269.803 125.172 269.208ZM169.156 271.441C161.048 271.021 157.238 264.321 155.069 246.387L152.465 224.744L150.743 224.974L146.92 193.301C149.455 191.162 150.215 184.435 149.51 170.602L159.909 167.001L162.011 184.733L166.783 183.42L171.366 222.28L166.539 222.916L167.055 227.275C167.516 231.187 168.316 232.323 169.848 232.188C170.363 232.134 171.082 231.917 171.922 231.065L177.047 268.504C175.231 270.548 172.505 271.617 169.156 271.441ZM197.182 272.876C186.43 272.334 178.444 255.456 174.987 226.057C171.529 196.658 175.448 178.425 185.901 175.434C196.355 172.443 204.341 189.308 208.097 222.24C211.853 255.185 207.934 273.417 197.182 272.876ZM225.642 271.454L221.303 233.122C231.337 218.057 234.415 204.278 232.15 184.056C231.093 174.608 229.371 168.057 226.998 165.039L225.113 166.338C226.184 168.341 227.418 174.175 228.245 181.66C230.157 198.674 230.333 209.489 225.642 210.166C220.815 210.87 216.815 200.502 214.89 183.447C212.165 159.395 216.259 144.492 226.754 140.77C237.289 137.034 244.028 149.635 247.255 178.696C249.031 194.708 248.543 204.833 244.719 217.056L240.421 224.92L241.357 233.325L244.76 233.081C246.956 232.919 247.973 230.293 248.258 224.757L251.661 224.432L257.017 272.781L225.642 271.454ZM273.762 276.774C270.088 276.584 266.386 274.581 262.63 270.223L258.292 223.593C260.691 226.625 263.932 228.209 266.305 228.019C271.294 227.613 273.532 219.181 272.596 207.175L272.406 206.769C271.457 215.797 269.383 220.02 265.844 220.385C259.186 221.062 253.777 207.486 250.997 182.337C247.58 151.409 251.363 132.026 260.976 128.615C272.596 124.487 281.897 149.108 287.05 196.779C292.595 247.943 288.189 277.518 273.762 276.774ZM330.533 275.881L309.869 173.092L309.679 173.133L317.042 241.988L318.913 241.92L322.506 275.556L305.774 274.852L301.571 235.816L305.313 235.613L297.246 160.396L293.571 161.289L289.368 122.253L311.171 114.714L322.764 189.944L322.953 189.917L316.648 112.819L331.021 107.852L335.577 151.043L330.058 152.397L343.183 276.408L330.533 275.881ZM372.605 281.809C360.769 281.2 350.735 248.756 344.702 191.541C338.668 134.34 341.719 99.9469 353.162 95.8727C364.606 91.8121 374.639 124.27 381.066 186.127C387.493 248.025 384.456 282.418 372.605 281.809ZM429.308 280.036L417.444 219.844L417.255 219.857L417.702 279.549L405.025 279.021L385.202 161.506L383.358 161.872L376.144 92.2587L392.795 86.5062L400.225 158.542L409.268 209.801L409.458 209.787L405.906 157.418L403.926 157.811L396.455 85.2474L411.506 80.0498L419.166 154.792L428.332 208L428.522 207.987L424.807 153.683L422.868 154.062L415.166 78.7774L432.359 72.8354L440.277 150.61L436.494 151.354L442.108 280.564L429.308 280.036Z" fill="#204D8F"/>
<path d="M503.339 297.443C501.983 285.261 468.086 30.7943 466.73 24.0266C465.375 17.2589 463.056 11.2491 458.107 9.51658C453.158 7.78405 443.952 10.7754 438.23 13.0899C301.951 68.2198 165.658 123.336 29.3654 178.452C15.0745 184.232 5.78671 190.891 11.5085 207.012C27.5485 252.153 43.6021 316.243 59.6421 361.384C61.6895 367.123 64.4148 373.579 70.218 375.488C75.5059 377.234 81.4175 374.229 84.7665 369.789C88.1155 365.35 89.4578 359.773 90.7324 354.359C94.6102 337.846 98.488 321.319 102.379 304.806C103.098 301.72 104.047 298.309 106.759 296.657C109.104 295.223 112.074 295.534 114.799 295.899C163.285 302.275 453.172 324.513 458.595 324.513C464.019 324.513 487.069 327.22 495.204 321.806C503.339 316.392 504.695 309.624 503.339 297.443ZM85.3224 265.539L81.8378 239.565L83.6547 239.389L81.2819 221.63L79.0176 222.077L76.2787 201.679C78.6922 200.163 80.6446 197.578 82.0683 193.923L92.1018 190.458L98.2846 237.941L100.101 237.765L103.803 266.338L85.3224 265.539ZM125.172 269.208C113.43 268.612 106.311 259.949 104.237 243.829C103.112 235.139 104.061 228.953 107.071 225.068L107.016 224.595C104.074 221.522 102.135 216.446 101.213 209.3C99.2744 194.221 103.64 184.476 114.081 180.781C124.521 177.072 131.015 184.219 133.144 201.544C134.12 209.543 133.673 215.472 131.68 219.587L131.761 220.236C135.68 224.08 138.215 231.227 139.449 241.27C141.768 260.464 136.873 269.803 125.172 269.208ZM169.156 271.441C161.048 271.021 157.238 264.321 155.069 246.387L152.465 224.744L150.743 224.974L146.92 193.301C149.455 191.162 150.215 184.435 149.51 170.602L159.909 167.001L162.011 184.733L166.783 183.42L171.366 222.28L166.539 222.916L167.055 227.275C167.516 231.187 168.316 232.323 169.848 232.188C170.363 232.134 171.082 231.917 171.922 231.065L177.047 268.504C175.231 270.548 172.505 271.617 169.156 271.441ZM197.182 272.876C186.43 272.334 178.444 255.456 174.987 226.057C171.529 196.658 175.448 178.425 185.901 175.434C196.355 172.443 204.341 189.308 208.097 222.24C211.853 255.185 207.934 273.417 197.182 272.876ZM225.642 271.454L221.303 233.122C231.337 218.057 234.415 204.278 232.15 184.056C231.093 174.608 229.371 168.057 226.998 165.039L225.113 166.338C226.184 168.341 227.418 174.175 228.245 181.66C230.157 198.674 230.333 209.489 225.642 210.166C220.815 210.87 216.815 200.502 214.89 183.447C212.165 159.395 216.259 144.492 226.754 140.77C237.289 137.034 244.028 149.635 247.255 178.696C249.031 194.708 248.543 204.833 244.719 217.056L240.421 224.92L241.357 233.325L244.76 233.081C246.956 232.919 247.973 230.293 248.258 224.757L251.661 224.432L257.017 272.781L225.642 271.454ZM273.762 276.774C270.088 276.584 266.386 274.581 262.63 270.223L258.292 223.593C260.691 226.625 263.932 228.209 266.305 228.019C271.294 227.613 273.532 219.181 272.596 207.175L272.406 206.769C271.457 215.797 269.383 220.02 265.844 220.385C259.186 221.062 253.777 207.486 250.997 182.337C247.58 151.409 251.363 132.026 260.976 128.615C272.596 124.487 281.897 149.108 287.05 196.779C292.595 247.943 288.189 277.518 273.762 276.774ZM330.533 275.881L309.869 173.092L309.679 173.133L317.042 241.988L318.913 241.92L322.506 275.556L305.774 274.852L301.571 235.816L305.313 235.613L297.246 160.396L293.571 161.289L289.368 122.253L311.171 114.714L322.764 189.944L322.953 189.917L316.648 112.819L331.021 107.852L335.577 151.043L330.058 152.397L343.183 276.408L330.533 275.881ZM372.605 281.809C360.769 281.2 350.735 248.756 344.702 191.541C338.668 134.34 341.719 99.9469 353.162 95.8727C364.606 91.8121 374.639 124.27 381.066 186.127C387.493 248.025 384.456 282.418 372.605 281.809ZM429.308 280.036L417.444 219.844L417.255 219.857L417.702 279.549L405.025 279.021L385.202 161.506L383.358 161.872L376.144 92.2587L392.795 86.5062L400.225 158.542L409.268 209.801L409.458 209.787L405.906 157.418L403.926 157.811L396.455 85.2474L411.506 80.0498L419.166 154.792L428.332 208L428.522 207.987L424.807 153.683L422.868 154.062L415.166 78.7774L432.359 72.8354L440.277 150.61L436.494 151.354L442.108 280.564L429.308 280.036Z" stroke="#FFD299" stroke-width="18" mask="url(#path-4-outside-1)"/>
<path d="M120.033 208.691C119.707 206.051 118.812 204.968 117.335 205.32C115.857 205.672 115.328 207.066 115.64 209.53C115.979 212.237 117.009 213.672 119.45 214.971C120.128 212.413 120.29 210.694 120.033 208.691Z" fill="#204D8F"/>
<path d="M265.139 165.878C262.061 167.028 262.223 175.542 263.132 183.758C264.027 191.974 267.091 191.487 267.783 191.325C268.474 191.162 269.545 188.875 269.938 183.88C268.867 177.451 268.23 164.727 265.139 165.878Z" fill="#204D8F"/>
</svg>
