<?xml version="1.0" encoding="utf-8"?>
<!-- Generator: Adobe Illustrator 24.0.3, SVG Export Plug-In . SVG Version: 6.00 Build 0)  -->
<svg version="1.1" id="Layer_1" xmlns="http://www.w3.org/2000/svg" xmlns:xlink="http://www.w3.org/1999/xlink" x="0px" y="0px"
	 viewBox="0 0 513 386" style="enable-background:new 0 0 513 386;" xml:space="preserve">
<style type="text/css">
	.st0{fill:#FFD298;}
	.st1{fill:#204D8F;}
	.st2{fill:#FFFFFF;filter:url(#Adobe_OpacityMaskFilter);}
	.st3{mask:url(#path-4-outside-1_2_);fill:none;stroke:#FFD299;stroke-width:18;}
</style>
<g>
	<path class="st0" d="M185.9,175.4c-10.5,3-14.4,21.2-10.9,50.6c3.5,29.4,11.4,46.3,22.2,46.8c10.8,0.5,14.7-17.7,10.9-50.6
		C204.3,189.3,196.4,172.4,185.9,175.4z M193.6,242c-3.3,0.2-4.7-9.4-5.6-17.5c-0.9-8.1-0.9-17.9,1.5-18.3c2.3-0.4,4.6,9.2,5.6,17.5
		S196.9,241.9,193.6,242z"/>
	<path class="st0" d="M261,128.6c-9.6,3.4-13.4,22.8-10,53.7c2.8,25.1,8.2,38.7,14.8,38c3.5-0.4,5.6-4.6,6.6-13.6l0.2,0.4
		c0.9,12-1.3,20.4-6.3,20.8c-2.4,0.2-5.6-1.4-8-4.4l4.3,46.6c3.8,4.4,7.5,6.4,11.1,6.6c14.4,0.7,18.8-28.8,13.3-80
		C281.9,149.1,272.6,124.5,261,128.6z M267.8,191.3c-0.7,0.2-3.8,0.6-4.7-7.6c-0.9-8.2-1.1-16.7,2-17.9c3.1-1.2,3.7,11.6,4.8,18
		C269.5,188.9,268.5,191.2,267.8,191.3z"/>
	<path class="st0" d="M248.3,224.8c-0.3,5.5-1.3,8.2-3.5,8.3l-3.4,0.2l-0.9-8.4l4.3-7.9c3.8-12.2,4.3-22.3,2.5-38.4
		c-3.2-29.1-10-41.7-20.5-37.9c-10.5,3.7-14.6,18.6-11.9,42.7c1.9,17.1,5.9,27.4,10.8,26.7c4.7-0.7,4.5-11.5,2.6-28.5
		c-0.8-7.5-2.1-13.3-3.1-15.3l1.9-1.3c2.4,3,4.1,9.6,5.2,19c2.3,20.2-0.8,34-10.8,49.1l4.3,38.3l31.4,1.3l-5.4-48.3L248.3,224.8z"/>
	<path class="st0" d="M169.8,232.2c-1.5,0.1-2.3-1-2.8-4.9l-0.5-4.4l4.8-0.6l-4.6-38.9l-4.8,1.3l-2.1-17.7l-10.4,3.6
		c0.7,13.8-0.1,20.6-2.6,22.7l3.8,31.7l1.7-0.2l2.6,21.6c2.2,17.9,6,24.6,14.1,25.1c3.3,0.2,6.1-0.9,7.9-2.9l-5.1-37.4
		C171.1,231.9,170.4,232.1,169.8,232.2z"/>
	<path class="st0" d="M98.3,237.9l-6.2-47.5l-10,3.5c-1.4,3.7-3.4,6.2-5.8,7.8l2.7,20.4l2.3-0.4l2.4,17.8l-1.8,0.2l3.5,26l18.5,0.8
		l-3.7-28.6L98.3,237.9z"/>
	<path class="st0" d="M131.8,220.2l-0.1-0.6c2-4.1,2.4-10,1.5-18c-2.1-17.3-8.6-24.5-19.1-20.8c-10.4,3.7-14.8,13.4-12.9,28.5
		c0.9,7.1,2.9,12.2,5.8,15.3l0.1,0.5c-3,3.9-4,10.1-2.8,18.8c2.1,16.1,9.2,24.8,20.9,25.4c11.7,0.6,16.6-8.7,14.3-27.9
		C138.2,231.2,135.7,224.1,131.8,220.2z M115.6,209.5c-0.3-2.5,0.2-3.9,1.7-4.2c1.5-0.4,2.4,0.7,2.7,3.4c0.3,2,0.1,3.7-0.6,6.3
		C117,213.7,116,212.2,115.6,209.5z M121.9,244.1c-1.5,0.1-2.4-1.1-2.7-3.7c-0.2-2-0.1-3.6,0.6-6c2.5,1.5,3.5,3.1,3.8,5.8
		C124,242.7,123.4,244,121.9,244.1z"/>
	<polygon class="st0" points="440.3,150.6 432.4,72.8 415.2,78.8 422.9,154.1 424.8,153.7 428.5,208 428.3,208 419.2,154.8 
		411.5,80 396.5,85.2 403.9,157.8 405.9,157.4 409.5,209.8 409.3,209.8 400.2,158.5 392.8,86.5 376.1,92.3 383.4,161.9 385.2,161.5 
		405,279 417.7,279.5 417.3,219.9 417.4,219.8 429.3,280 442.1,280.6 436.5,151.4 	"/>
	<path class="st0" d="M353.2,95.9c-11.4,4.1-14.5,38.5-8.5,95.7c6,57.2,16.1,89.7,27.9,90.3c11.9,0.6,14.9-33.8,8.5-95.7
		C374.6,124.3,364.6,91.8,353.2,95.9z M367.2,230.6c-3.4,0.2-7.1-27.2-8.5-41.2c-1.5-14-4.2-41.4-0.2-42.4c4-1,7,26.9,8.5,41.2
		C368.5,202.5,370.6,230.5,367.2,230.6z"/>
	<polygon class="st0" points="335.6,151 331,107.9 316.6,112.8 323,189.9 322.8,189.9 311.2,114.7 289.4,122.3 293.6,161.3 
		297.2,160.4 305.3,235.6 301.6,235.8 305.8,274.9 322.5,275.6 318.9,241.9 317,242 309.7,173.1 309.9,173.1 330.5,275.9 
		343.2,276.4 330.1,152.4 	"/>
</g>
<path class="st1" d="M119.8,234.4c-0.7,2.4-0.9,4.1-0.6,6c0.3,2.6,1.2,3.8,2.7,3.7c1.5-0.1,2-1.4,1.7-3.9
	C123.3,237.5,122.3,235.9,119.8,234.4z"/>
<path class="st1" d="M358.5,147.1c-4.1,1-1.3,28.4,0.2,42.4c1.5,14,5.2,41.4,8.5,41.2c3.4-0.2,1.3-28.2-0.2-42.4
	C365.6,174,362.6,146.1,358.5,147.1z"/>
<path class="st1" d="M189.5,206.3c-2.3,0.4-2.4,10.2-1.5,18.3c0.9,8.1,2.3,17.6,5.6,17.5c3.3-0.2,2.4-10,1.5-18.3
	S191.8,205.9,189.5,206.3z"/>
<path class="st1" d="M503.3,297.4C502,285.3,468.1,30.8,466.7,24c-1.4-6.8-3.7-12.8-8.6-14.5c-4.9-1.7-14.2,1.3-19.9,3.6
	C302,68.2,165.7,123.3,29.4,178.5c-14.3,5.8-23.6,12.4-17.9,28.6c16,45.1,32.1,109.2,48.1,154.4c2,5.7,4.8,12.2,10.6,14.1
	c5.3,1.7,11.2-1.3,14.5-5.7c3.3-4.4,4.7-10,6-15.4c3.9-16.5,7.8-33,11.6-49.6c0.7-3.1,1.7-6.5,4.4-8.1c2.3-1.4,5.3-1.1,8-0.8
	c48.5,6.4,338.4,28.6,343.8,28.6c5.4,0,28.5,2.7,36.6-2.7C503.3,316.4,504.7,309.6,503.3,297.4z M85.3,265.5l-3.5-26l1.8-0.2
	l-2.4-17.8l-2.3,0.4l-2.7-20.4c2.4-1.5,4.4-4.1,5.8-7.8l10-3.5l6.2,47.5l1.8-0.2l3.7,28.6L85.3,265.5z M125.2,269.2
	c-11.7-0.6-18.9-9.3-20.9-25.4c-1.1-8.7-0.2-14.9,2.8-18.8l-0.1-0.5c-2.9-3.1-4.9-8.1-5.8-15.3c-1.9-15.1,2.4-24.8,12.9-28.5
	c10.4-3.7,16.9,3.4,19.1,20.8c1,8,0.5,13.9-1.5,18l0.1,0.6c3.9,3.8,6.5,11,7.7,21C141.8,260.5,136.9,269.8,125.2,269.2z
	 M169.2,271.4c-8.1-0.4-11.9-7.1-14.1-25.1l-2.6-21.6l-1.7,0.2l-3.8-31.7c2.5-2.1,3.3-8.9,2.6-22.7l10.4-3.6l2.1,17.7l4.8-1.3
	l4.6,38.9l-4.8,0.6l0.5,4.4c0.5,3.9,1.3,5,2.8,4.9c0.5-0.1,1.2-0.3,2.1-1.1l5.1,37.4C175.2,270.5,172.5,271.6,169.2,271.4z
	 M197.2,272.9c-10.8-0.5-18.7-17.4-22.2-46.8c-3.5-29.4,0.5-47.6,10.9-50.6c10.5-3,18.4,13.9,22.2,46.8
	C211.9,255.2,207.9,273.4,197.2,272.9z M225.6,271.5l-4.3-38.3c10-15.1,13.1-28.8,10.8-49.1c-1.1-9.4-2.8-16-5.2-19l-1.9,1.3
	c1.1,2,2.3,7.8,3.1,15.3c1.9,17,2.1,27.8-2.6,28.5c-4.8,0.7-8.8-9.7-10.8-26.7c-2.7-24.1,1.4-39,11.9-42.7
	c10.5-3.7,17.3,8.9,20.5,37.9c1.8,16,1.3,26.1-2.5,38.4l-4.3,7.9l0.9,8.4l3.4-0.2c2.2-0.2,3.2-2.8,3.5-8.3l3.4-0.3l5.4,48.3
	L225.6,271.5z M273.8,276.8c-3.7-0.2-7.4-2.2-11.1-6.6l-4.3-46.6c2.4,3,5.6,4.6,8,4.4c5-0.4,7.2-8.8,6.3-20.8l-0.2-0.4
	c-0.9,9-3,13.3-6.6,13.6c-6.7,0.7-12.1-12.9-14.8-38c-3.4-30.9,0.4-50.3,10-53.7c11.6-4.1,20.9,20.5,26.1,68.2
	C292.6,247.9,288.2,277.5,273.8,276.8z M330.5,275.9l-20.7-102.8l-0.2,0L317,242l1.9-0.1l3.6,33.6l-16.7-0.7l-4.2-39l3.7-0.2
	l-8.1-75.2l-3.7,0.9l-4.2-39l21.8-7.5l11.6,75.2l0.2,0l-6.3-77.1l14.4-5l4.6,43.2l-5.5,1.4l13.1,124L330.5,275.9z M372.6,281.8
	c-11.8-0.6-21.9-33.1-27.9-90.3c-6-57.2-3-91.6,8.5-95.7c11.4-4.1,21.5,28.4,27.9,90.3C387.5,248,384.5,282.4,372.6,281.8z
	 M429.3,280l-11.9-60.2l-0.2,0l0.4,59.7L405,279l-19.8-117.5l-1.8,0.4l-7.2-69.6l16.7-5.8l7.4,72l9,51.3l0.2,0l-3.6-52.4l-2,0.4
	l-7.5-72.6l15.1-5.2l7.7,74.7l9.2,53.2l0.2,0l-3.7-54.3l-1.9,0.4l-7.7-75.3l17.2-5.9l7.9,77.8l-3.8,0.7l5.6,129.2L429.3,280z"/>
<defs>
	<filter id="Adobe_OpacityMaskFilter" filterUnits="userSpaceOnUse" x="0.8" y="0" width="512" height="385">
		<feColorMatrix  type="matrix" values="1 0 0 0 0  0 1 0 0 0  0 0 1 0 0  0 0 0 1 0"/>
	</filter>
</defs>
<mask maskUnits="userSpaceOnUse" x="0.8" y="0" width="512" height="385" id="path-4-outside-1_2_">
	<rect x="0.8" class="st2" width="513" height="386"/>
	<path d="M503.3,297.4C502,285.3,468.1,30.8,466.7,24c-1.4-6.8-3.7-12.8-8.6-14.5c-4.9-1.7-14.2,1.3-19.9,3.6
		C302,68.2,165.7,123.3,29.4,178.5c-14.3,5.8-23.6,12.4-17.9,28.6c16,45.1,32.1,109.2,48.1,154.4c2,5.7,4.8,12.2,10.6,14.1
		c5.3,1.7,11.2-1.3,14.5-5.7c3.3-4.4,4.7-10,6-15.4c3.9-16.5,7.8-33,11.6-49.6c0.7-3.1,1.7-6.5,4.4-8.1c2.3-1.4,5.3-1.1,8-0.8
		c48.5,6.4,338.4,28.6,343.8,28.6c5.4,0,28.5,2.7,36.6-2.7C503.3,316.4,504.7,309.6,503.3,297.4z M85.3,265.5l-3.5-26l1.8-0.2
		l-2.4-17.8l-2.3,0.4l-2.7-20.4c2.4-1.5,4.4-4.1,5.8-7.8l10-3.5l6.2,47.5l1.8-0.2l3.7,28.6L85.3,265.5z M125.2,269.2
		c-11.7-0.6-18.9-9.3-20.9-25.4c-1.1-8.7-0.2-14.9,2.8-18.8l-0.1-0.5c-2.9-3.1-4.9-8.1-5.8-15.3c-1.9-15.1,2.4-24.8,12.9-28.5
		c10.4-3.7,16.9,3.4,19.1,20.8c1,8,0.5,13.9-1.5,18l0.1,0.6c3.9,3.8,6.5,11,7.7,21C141.8,260.5,136.9,269.8,125.2,269.2z
		 M169.2,271.4c-8.1-0.4-11.9-7.1-14.1-25.1l-2.6-21.6l-1.7,0.2l-3.8-31.7c2.5-2.1,3.3-8.9,2.6-22.7l10.4-3.6l2.1,17.7l4.8-1.3
		l4.6,38.9l-4.8,0.6l0.5,4.4c0.5,3.9,1.3,5,2.8,4.9c0.5-0.1,1.2-0.3,2.1-1.1l5.1,37.4C175.2,270.5,172.5,271.6,169.2,271.4z
		 M197.2,272.9c-10.8-0.5-18.7-17.4-22.2-46.8c-3.5-29.4,0.5-47.6,10.9-50.6c10.5-3,18.4,13.9,22.2,46.8
		C211.9,255.2,207.9,273.4,197.2,272.9z M225.6,271.5l-4.3-38.3c10-15.1,13.1-28.8,10.8-49.1c-1.1-9.4-2.8-16-5.2-19l-1.9,1.3
		c1.1,2,2.3,7.8,3.1,15.3c1.9,17,2.1,27.8-2.6,28.5c-4.8,0.7-8.8-9.7-10.8-26.7c-2.7-24.1,1.4-39,11.9-42.7
		c10.5-3.7,17.3,8.9,20.5,37.9c1.8,16,1.3,26.1-2.5,38.4l-4.3,7.9l0.9,8.4l3.4-0.2c2.2-0.2,3.2-2.8,3.5-8.3l3.4-0.3l5.4,48.3
		L225.6,271.5z M273.8,276.8c-3.7-0.2-7.4-2.2-11.1-6.6l-4.3-46.6c2.4,3,5.6,4.6,8,4.4c5-0.4,7.2-8.8,6.3-20.8l-0.2-0.4
		c-0.9,9-3,13.3-6.6,13.6c-6.7,0.7-12.1-12.9-14.8-38c-3.4-30.9,0.4-50.3,10-53.7c11.6-4.1,20.9,20.5,26.1,68.2
		C292.6,247.9,288.2,277.5,273.8,276.8z M330.5,275.9l-20.7-102.8l-0.2,0L317,242l1.9-0.1l3.6,33.6l-16.7-0.7l-4.2-39l3.7-0.2
		l-8.1-75.2l-3.7,0.9l-4.2-39l21.8-7.5l11.6,75.2l0.2,0l-6.3-77.1l14.4-5l4.6,43.2l-5.5,1.4l13.1,124L330.5,275.9z M372.6,281.8
		c-11.8-0.6-21.9-33.1-27.9-90.3c-6-57.2-3-91.6,8.5-95.7c11.4-4.1,21.5,28.4,27.9,90.3C387.5,248,384.5,282.4,372.6,281.8z
		 M429.3,280l-11.9-60.2l-0.2,0l0.4,59.7L405,279l-19.8-117.5l-1.8,0.4l-7.2-69.6l16.7-5.8l7.4,72l9,51.3l0.2,0l-3.6-52.4l-2,0.4
		l-7.5-72.6l15.1-5.2l7.7,74.7l9.2,53.2l0.2,0l-3.7-54.3l-1.9,0.4l-7.7-75.3l17.2-5.9l7.9,77.8l-3.8,0.7l5.6,129.2L429.3,280z"/>
</mask>
<path class="st3" d="M503.3,297.4C502,285.3,468.1,30.8,466.7,24c-1.4-6.8-3.7-12.8-8.6-14.5c-4.9-1.7-14.2,1.3-19.9,3.6
	C302,68.2,165.7,123.3,29.4,178.5c-14.3,5.8-23.6,12.4-17.9,28.6c16,45.1,32.1,109.2,48.1,154.4c2,5.7,4.8,12.2,10.6,14.1
	c5.3,1.7,11.2-1.3,14.5-5.7c3.3-4.4,4.7-10,6-15.4c3.9-16.5,7.8-33,11.6-49.6c0.7-3.1,1.7-6.5,4.4-8.1c2.3-1.4,5.3-1.1,8-0.8
	c48.5,6.4,338.4,28.6,343.8,28.6c5.4,0,28.5,2.7,36.6-2.7C503.3,316.4,504.7,309.6,503.3,297.4z M85.3,265.5l-3.5-26l1.8-0.2
	l-2.4-17.8l-2.3,0.4l-2.7-20.4c2.4-1.5,4.4-4.1,5.8-7.8l10-3.5l6.2,47.5l1.8-0.2l3.7,28.6L85.3,265.5z M125.2,269.2
	c-11.7-0.6-18.9-9.3-20.9-25.4c-1.1-8.7-0.2-14.9,2.8-18.8l-0.1-0.5c-2.9-3.1-4.9-8.1-5.8-15.3c-1.9-15.1,2.4-24.8,12.9-28.5
	c10.4-3.7,16.9,3.4,19.1,20.8c1,8,0.5,13.9-1.5,18l0.1,0.6c3.9,3.8,6.5,11,7.7,21C141.8,260.5,136.9,269.8,125.2,269.2z
	 M169.2,271.4c-8.1-0.4-11.9-7.1-14.1-25.1l-2.6-21.6l-1.7,0.2l-3.8-31.7c2.5-2.1,3.3-8.9,2.6-22.7l10.4-3.6l2.1,17.7l4.8-1.3
	l4.6,38.9l-4.8,0.6l0.5,4.4c0.5,3.9,1.3,5,2.8,4.9c0.5-0.1,1.2-0.3,2.1-1.1l5.1,37.4C175.2,270.5,172.5,271.6,169.2,271.4z
	 M197.2,272.9c-10.8-0.5-18.7-17.4-22.2-46.8c-3.5-29.4,0.5-47.6,10.9-50.6c10.5-3,18.4,13.9,22.2,46.8
	C211.9,255.2,207.9,273.4,197.2,272.9z M225.6,271.5l-4.3-38.3c10-15.1,13.1-28.8,10.8-49.1c-1.1-9.4-2.8-16-5.2-19l-1.9,1.3
	c1.1,2,2.3,7.8,3.1,15.3c1.9,17,2.1,27.8-2.6,28.5c-4.8,0.7-8.8-9.7-10.8-26.7c-2.7-24.1,1.4-39,11.9-42.7
	c10.5-3.7,17.3,8.9,20.5,37.9c1.8,16,1.3,26.1-2.5,38.4l-4.3,7.9l0.9,8.4l3.4-0.2c2.2-0.2,3.2-2.8,3.5-8.3l3.4-0.3l5.4,48.3
	L225.6,271.5z M273.8,276.8c-3.7-0.2-7.4-2.2-11.1-6.6l-4.3-46.6c2.4,3,5.6,4.6,8,4.4c5-0.4,7.2-8.8,6.3-20.8l-0.2-0.4
	c-0.9,9-3,13.3-6.6,13.6c-6.7,0.7-12.1-12.9-14.8-38c-3.4-30.9,0.4-50.3,10-53.7c11.6-4.1,20.9,20.5,26.1,68.2
	C292.6,247.9,288.2,277.5,273.8,276.8z M330.5,275.9l-20.7-102.8l-0.2,0L317,242l1.9-0.1l3.6,33.6l-16.7-0.7l-4.2-39l3.7-0.2
	l-8.1-75.2l-3.7,0.9l-4.2-39l21.8-7.5l11.6,75.2l0.2,0l-6.3-77.1l14.4-5l4.6,43.2l-5.5,1.4l13.1,124L330.5,275.9z M372.6,281.8
	c-11.8-0.6-21.9-33.1-27.9-90.3c-6-57.2-3-91.6,8.5-95.7c11.4-4.1,21.5,28.4,27.9,90.3C387.5,248,384.5,282.4,372.6,281.8z
	 M429.3,280l-11.9-60.2l-0.2,0l0.4,59.7L405,279l-19.8-117.5l-1.8,0.4l-7.2-69.6l16.7-5.8l7.4,72l9,51.3l0.2,0l-3.6-52.4l-2,0.4
	l-7.5-72.6l15.1-5.2l7.7,74.7l9.2,53.2l0.2,0l-3.7-54.3l-1.9,0.4l-7.7-75.3l17.2-5.9l7.9,77.8l-3.8,0.7l5.6,129.2L429.3,280z"/>
<path class="st1" d="M120,208.7c-0.3-2.6-1.2-3.7-2.7-3.4c-1.5,0.4-2,1.7-1.7,4.2c0.3,2.7,1.4,4.1,3.8,5.4
	C120.1,212.4,120.3,210.7,120,208.7z"/>
<path class="st1" d="M265.1,165.9c-3.1,1.1-2.9,9.7-2,17.9c0.9,8.2,4,7.7,4.7,7.6c0.7-0.2,1.8-2.4,2.2-7.4
	C268.9,177.5,268.2,164.7,265.1,165.9z"/>
</svg>
