<svg width="495" height="367" viewBox="0 0 495 367" fill="none" xmlns="http://www.w3.org/2000/svg">
<path d="M110.816 225.408C110.138 227.844 109.962 229.482 110.206 231.445C110.531 234.03 111.439 235.208 112.931 235.113C114.422 235.018 114.965 233.719 114.653 231.215C114.314 228.467 113.27 226.924 110.816 225.408Z" fill="#204D8F"/>
<path d="M349.518 138.064C345.464 139.038 348.243 166.488 349.708 180.47C351.172 194.439 354.887 221.835 358.25 221.645C361.612 221.456 359.538 193.464 358.046 179.239C356.568 164.999 353.558 137.089 349.518 138.064Z" fill="#204D8F"/>
<path d="M180.467 197.268C178.149 197.674 178.067 207.446 179.003 215.554C179.938 223.662 181.335 233.204 184.603 233.028C187.884 232.852 187.03 223.039 186.067 214.742C185.104 206.445 182.772 196.862 180.467 197.268Z" fill="#204D8F"/>
<path d="M494.339 288.443C492.983 276.261 459.086 21.7943 457.73 15.0266C456.375 8.25886 454.056 2.24912 449.107 0.516583C444.158 -1.21595 434.952 1.77538 429.23 4.08994C292.951 59.2198 156.658 114.336 20.3654 169.452C6.07446 175.232 -3.21329 181.891 2.50851 198.012C18.5485 243.153 34.6021 307.243 50.6421 352.384C52.6895 358.123 55.4148 364.579 61.218 366.488C66.5059 368.234 72.4175 365.229 75.7665 360.789C79.1155 356.35 80.4578 350.773 81.7324 345.359C85.6102 328.846 89.488 312.319 93.3793 295.806C94.098 292.72 95.0471 289.309 97.7588 287.657C100.104 286.223 103.074 286.534 105.799 286.899C154.285 293.275 444.172 315.513 449.595 315.513C455.019 315.513 478.069 318.22 486.204 312.806C494.339 307.392 495.695 300.624 494.339 288.443ZM76.3224 256.539L72.8378 230.565L74.6547 230.389L72.2819 212.63L70.0176 213.077L67.2787 192.679C69.6922 191.163 71.6446 188.578 73.0683 184.923L83.1018 181.458L89.2846 228.941L91.1015 228.765L94.803 257.338L76.3224 256.539ZM116.172 260.208C104.43 259.612 97.3114 250.949 95.2369 234.829C94.1115 226.139 95.0606 219.953 98.0707 216.068L98.0164 215.595C95.0742 212.522 93.1353 207.446 92.2133 200.3C90.2744 185.221 94.6403 175.476 105.081 171.781C115.521 168.072 122.015 175.219 124.144 192.544C125.12 200.543 124.673 206.472 122.68 210.587L122.761 211.236C126.68 215.08 129.215 222.227 130.449 232.27C132.768 251.464 127.873 260.803 116.172 260.208ZM160.156 262.441C152.048 262.021 148.238 255.321 146.069 237.387L143.465 215.744L141.743 215.974L137.92 184.301C140.455 182.162 141.215 175.435 140.51 161.602L150.909 158.001L153.011 175.733L157.783 174.42L162.366 213.28L157.539 213.916L158.055 218.275C158.516 222.187 159.316 223.323 160.848 223.188C161.363 223.134 162.082 222.917 162.922 222.065L168.047 259.504C166.231 261.548 163.505 262.617 160.156 262.441ZM188.182 263.876C177.43 263.334 169.444 246.456 165.987 217.057C162.529 187.658 166.448 169.425 176.901 166.434C187.355 163.443 195.341 180.308 199.097 213.24C202.853 246.185 198.934 264.417 188.182 263.876ZM216.642 262.454L212.303 224.122C222.337 209.057 225.415 195.278 223.15 175.056C222.093 165.608 220.371 159.057 217.998 156.039L216.113 157.338C217.184 159.341 218.418 165.175 219.245 172.66C221.157 189.674 221.333 200.489 216.642 201.166C211.815 201.87 207.815 191.502 205.89 174.447C203.165 150.395 207.259 135.492 217.754 131.77C228.289 128.034 235.028 140.635 238.255 169.696C240.031 185.709 239.543 195.833 235.719 208.056L231.421 215.92L232.357 224.325L235.76 224.081C237.956 223.919 238.973 221.293 239.258 215.757L242.661 215.432L248.017 263.781L216.642 262.454ZM264.762 267.774C261.088 267.584 257.386 265.581 253.63 261.223L249.292 214.593C251.691 217.625 254.932 219.209 257.305 219.019C262.294 218.613 264.532 210.181 263.596 198.175L263.406 197.769C262.457 206.797 260.383 211.02 256.844 211.385C250.186 212.062 244.777 198.486 241.997 173.337C238.58 142.409 242.363 123.026 251.976 119.615C263.596 115.487 272.897 140.108 278.05 187.779C283.595 238.943 279.189 268.518 264.762 267.774ZM321.533 266.881L300.869 164.092L300.679 164.133L308.042 232.988L309.913 232.92L313.506 266.556L296.774 265.852L292.571 226.816L296.313 226.613L288.246 151.396L284.571 152.289L280.368 113.253L302.171 105.714L313.764 180.944L313.953 180.917L307.648 103.819L322.021 98.8516L326.577 142.043L321.058 143.397L334.183 267.408L321.533 266.881ZM363.605 272.809C351.769 272.2 341.735 239.756 335.702 182.541C329.668 125.34 332.719 90.9469 344.162 86.8727C355.606 82.8121 365.639 115.27 372.066 177.127C378.493 239.025 375.456 273.418 363.605 272.809ZM420.308 271.036L408.444 210.844L408.255 210.857L408.702 270.549L396.025 270.021L376.202 152.506L374.358 152.872L367.144 83.2587L383.795 77.5062L391.225 149.542L400.268 200.801L400.458 200.787L396.906 148.418L394.926 148.811L387.455 76.2474L402.506 71.0498L410.166 145.792L419.332 199L419.522 198.987L415.807 144.683L413.868 145.062L406.166 69.7774L423.359 63.8354L431.277 141.61L427.494 142.354L433.108 271.564L420.308 271.036Z" fill="#204D8F"/>
<path d="M111.033 199.691C110.707 197.051 109.812 195.968 108.335 196.32C106.857 196.672 106.328 198.066 106.64 200.53C106.979 203.237 108.009 204.672 110.45 205.971C111.128 203.413 111.29 201.694 111.033 199.691Z" fill="#204D8F"/>
<path d="M256.139 156.878C253.061 158.028 253.223 166.542 254.132 174.758C255.027 182.974 258.091 182.487 258.783 182.325C259.474 182.162 260.545 179.875 260.938 174.88C259.867 168.451 259.23 155.727 256.139 156.878Z" fill="#204D8F"/>
</svg>
