<svg width="344" height="154" viewBox="0 0 344 154" fill="none" xmlns="http://www.w3.org/2000/svg">
<path d="M28.48 109.44C28.48 101.48 18.28 100.76 18.28 97.24C18.28 96.12 18.88 95.56 19.72 95.56C21.08 95.56 21.36 96.76 21.28 98.84H28.4C28.64 94.4 26.8 89.72 19.88 89.72C13.56 89.72 10.84 93.44 10.84 97.92C10.84 105.48 21.04 106.56 21.04 110.16C21.04 111.28 20.56 111.84 19.36 111.84C18.12 111.84 17.36 110.96 17.48 108.2H10.32C10 114.64 12.76 117.68 19.68 117.68C25.92 117.68 28.48 113.64 28.48 109.44ZM47.9072 100.92V97.36C47.9072 92.96 44.8672 90.36 40.7472 90.36H29.8672V117H37.9072V107.92H40.7472C44.8672 107.92 47.9072 105.32 47.9072 100.92ZM40.3472 101.4C40.3472 102.32 39.8672 102.68 39.1072 102.68H37.9072V96.04H39.1072C39.8672 96.04 40.3472 96.44 40.3472 97.36V101.4ZM65.4403 117V110.52H57.3603V106.24H62.5203V100.6H57.3603V96.52H65.4403V90.36H49.3203V117H65.4403ZM85.4956 117L80.2156 90.36H71.0156L65.6156 117H72.8556L73.4956 113.28H77.0956L77.6156 117H85.4956ZM76.4556 108.36H74.2956L75.5356 100.36L76.4556 108.36ZM106.076 117L101.356 102.16L105.876 90.36H97.7963L94.1963 101.2V90.36H86.1563V117H94.1963V109.28L95.1963 107.08L97.6363 117H106.076ZM124.652 109.44C124.652 101.48 114.452 100.76 114.452 97.24C114.452 96.12 115.052 95.56 115.892 95.56C117.252 95.56 117.532 96.76 117.452 98.84H124.572C124.812 94.4 122.972 89.72 116.052 89.72C109.732 89.72 107.012 93.44 107.012 97.92C107.012 105.48 117.212 106.56 117.212 110.16C117.212 111.28 116.732 111.84 115.532 111.84C114.292 111.84 113.532 110.96 113.652 108.2H106.492C106.172 114.64 108.932 117.68 115.852 117.68C122.092 117.68 124.652 113.64 124.652 109.44Z" fill="#204D8F"/>
<path d="M46.44 141.56V126.36H34.08V140.56C34.08 143.88 33.16 145.32 29.84 145.32C26.52 145.32 25.52 143.88 25.52 140.56V126.36H11.6V141.56C11.6 148.52 16.56 154 29.12 154C41.72 154 46.44 148.52 46.44 141.56ZM82.8869 135.68V135.28C82.8869 130.44 79.0069 126.36 70.9669 126.36H49.8469V153H63.7669V144.92H71.2869C79.2869 144.92 82.8869 140.52 82.8869 135.68ZM68.8069 136.88C68.8069 138.28 68.1669 139.08 66.0869 139.08H63.7669V134.56H66.0869C68.1669 134.56 68.8069 135.28 68.8069 136.76V136.88Z" fill="#204D8F"/>
<path d="M39.52 15.36H25.68L20.76 23.12L15.64 15.36H0.24L12.76 32.96V42H26.68V32.96L39.52 15.36ZM75.8125 28.88V28.4C75.8125 20.64 69.1325 14.36 57.7325 14.36C46.2925 14.36 39.6125 20.64 39.6125 28.4V28.88C39.6125 36.6 46.2925 43 57.7325 43C69.1325 43 75.8125 36.6 75.8125 28.88ZM61.6125 29C61.6125 31.92 60.9725 34.64 57.7325 34.64C54.4925 34.64 53.8125 31.92 53.8125 29V28.32C53.8125 25.36 54.4925 22.64 57.7325 22.64C60.9725 22.64 61.6125 25.36 61.6125 28.32V29ZM113.065 30.56V15.36H100.705V29.56C100.705 32.88 99.785 34.32 96.465 34.32C93.145 34.32 92.145 32.88 92.145 29.56V15.36H78.225V30.56C78.225 37.52 83.185 43 95.745 43C108.345 43 113.065 37.52 113.065 30.56ZM151.192 42V15.36H138.672V25.68L137.752 24.68L127.752 15.36H116.472V42H128.952V31.6L129.952 32.76L139.272 42H151.192ZM188.832 42V27.56H172.232V32.28H178.552V32.44C177.672 33.76 175.992 34.64 173.912 34.64C170.272 34.64 167.992 32.48 167.992 29.4V29.16C167.992 25.72 170.792 23.24 175.192 23.24C178.312 23.24 180.992 24 183.992 25.36L188.192 17.6C184.112 15.6 179.112 14.36 172.472 14.36C161.792 14.36 153.792 20.2 153.792 28.56V29.04C153.792 37.52 161.432 43 170.752 43C174.432 43 177.992 41.84 180.472 39.6L180.992 42H188.832Z" fill="#204D8F"/>
<path d="M29.48 78L24.2 51.36H15L9.6 78H16.84L17.48 74.28H21.08L21.6 78H29.48ZM20.44 69.36H18.28L19.52 61.36L20.44 69.36ZM55.9006 78V51.36H45.9006L43.9406 60.76L43.2606 64.36L42.5406 60.76L40.5406 51.36H30.1406V78H36.8206V63.6L37.7406 68.04L39.7406 78H44.9806L47.1806 68.04L48.1806 63.6V78H55.9006ZM74.0341 78V71.52H65.9541V67.24H71.1141V61.6H65.9541V57.52H74.0341V51.36H57.9141V78H74.0341ZM94.6894 78V77.88C94.2094 76.6 93.7694 75.24 93.7694 73.56V68.92C93.7694 67.16 92.6494 65.56 90.2494 65.12C92.7694 64.48 93.6494 62.92 93.6494 61.28V57.44C93.6494 53.76 90.6094 51.36 86.3294 51.36H75.6094V78H83.6094V67.92H84.6894C85.8894 67.92 86.2094 68.72 86.2094 69.64V73.88C86.2094 75.8 86.7694 78 87.8894 78H94.6894ZM86.0094 61.6C86.0094 62.56 85.6094 62.92 84.8094 62.92H83.6094V57.04H84.8094C85.6094 57.04 86.0094 57.4 86.0094 58.36V61.6ZM103.648 78V51.36H95.6484V78H103.648ZM124.208 70.36V67.68H116.728V70.56C116.728 71.6 116.488 72.48 115.168 72.48C113.888 72.48 113.648 71.6 113.648 70.56V58.8C113.648 57.76 113.888 56.88 115.168 56.88C116.488 56.88 116.728 57.76 116.728 58.8V61.68H124.208V59C124.208 54.36 121.168 50.68 115.328 50.68C108.808 50.68 105.448 54.52 105.448 59.44V69.92C105.448 74.84 108.808 78.68 115.328 78.68C121.168 78.68 124.208 74.96 124.208 70.36ZM144.207 78L138.927 51.36H129.727L124.327 78H131.567L132.207 74.28H135.807L136.327 78H144.207ZM135.167 69.36H133.007L134.247 61.36L135.167 69.36Z" fill="#204D8F"/>
<path d="M183.101 94.452C182.817 95.4729 182.743 96.1592 182.846 96.9816C182.982 98.0649 183.363 98.5584 183.988 98.5187C184.613 98.4789 184.84 97.9345 184.709 96.8852C184.567 95.7338 184.13 95.0873 183.101 94.452Z" fill="#204D8F"/>
<path d="M283.124 57.8524C281.425 58.2608 282.59 69.763 283.204 75.6219C283.817 81.4751 285.374 92.9547 286.783 92.8753C288.192 92.7959 287.323 81.0668 286.698 75.1058C286.078 69.1391 284.817 57.4441 283.124 57.8524Z" fill="#204D8F"/>
<path d="M212.287 82.6605C211.316 82.8307 211.282 86.9256 211.674 90.323C212.066 93.7203 212.651 97.7189 214.02 97.6452C215.395 97.5714 215.037 93.4594 214.634 89.9827C214.23 86.5059 213.253 82.4903 212.287 82.6605Z" fill="#204D8F"/>
<path d="M343.808 120.865C343.24 115.761 329.036 9.1324 328.468 6.29654C327.9 3.46068 326.928 0.942442 324.855 0.216462C322.781 -0.509518 318.923 0.743932 316.526 1.7138C259.421 24.8147 202.311 47.9099 145.2 71.0052C139.212 73.427 135.32 76.2175 137.718 82.9725C144.439 101.888 151.166 128.743 157.887 147.658C158.745 150.063 159.887 152.769 162.319 153.568C164.534 154.3 167.011 153.041 168.415 151.181C169.818 149.32 170.381 146.983 170.915 144.715C172.54 137.795 174.164 130.87 175.795 123.951C176.096 122.657 176.494 121.228 177.63 120.536C178.613 119.935 179.857 120.066 180.999 120.219C201.316 122.89 322.787 132.209 325.059 132.209C327.332 132.209 336.99 133.343 340.399 131.074C343.808 128.806 344.376 125.97 343.808 120.865ZM168.648 107.497L167.188 96.613L167.949 96.5392L166.955 89.0979L166.006 89.2851L164.858 80.7378C165.869 80.1026 166.688 79.0193 167.284 77.4879L171.488 76.036L174.079 95.9324L174.841 95.8586L176.392 107.832L168.648 107.497ZM185.346 109.034C180.425 108.784 177.443 105.155 176.573 98.3996C176.102 94.7583 176.5 92.1663 177.761 90.5386L177.738 90.34C176.505 89.0526 175.693 86.9257 175.306 83.931C174.494 77.6127 176.323 73.5291 180.698 71.9807C185.073 70.4266 187.794 73.4213 188.686 80.6811C189.095 84.0331 188.908 86.5173 188.073 88.2415L188.107 88.5137C189.749 90.1245 190.811 93.1192 191.328 97.3276C192.3 105.37 190.249 109.284 185.346 109.034ZM203.776 109.97C200.379 109.794 198.782 106.987 197.873 99.4715L196.782 90.4024L196.061 90.4988L194.459 77.227C195.521 76.3309 195.839 73.5121 195.544 67.7156L199.902 66.2069L200.782 73.6368L202.782 73.0867L204.702 89.3702L202.68 89.6367L202.896 91.463C203.089 93.1022 203.424 93.5786 204.066 93.5219C204.282 93.4992 204.583 93.4084 204.935 93.0511L207.083 108.739C206.322 109.596 205.18 110.044 203.776 109.97ZM215.52 110.571C211.015 110.344 207.668 103.272 206.219 90.9526C204.771 78.6336 206.413 70.9938 210.793 69.7404C215.173 68.4869 218.52 75.5539 220.094 89.3532C221.667 103.158 220.025 110.798 215.52 110.571ZM227.445 109.976L225.627 93.9132C229.832 87.6006 231.121 81.8268 230.173 73.3532C229.729 69.3944 229.008 66.6493 228.014 65.3845L227.224 65.929C227.673 66.7684 228.19 69.2129 228.536 72.3494C229.337 79.4787 229.411 84.0104 227.445 84.294C225.423 84.5889 223.747 80.2444 222.94 73.098C221.798 63.0194 223.514 56.7748 227.911 55.2151C232.326 53.6497 235.15 58.9301 236.502 71.1073C237.246 77.8169 237.042 82.0593 235.439 87.1809L233.638 90.4762L234.03 93.9983L235.456 93.8962C236.377 93.8281 236.803 92.7278 236.922 90.4081L238.348 90.272L240.592 110.531L227.445 109.976ZM247.609 112.205C246.069 112.125 244.518 111.286 242.945 109.459L241.127 89.9203C242.132 91.1908 243.49 91.8544 244.484 91.775C246.575 91.6048 247.512 88.0714 247.12 83.0405L247.041 82.8704C246.643 86.6534 245.774 88.423 244.291 88.5761C241.501 88.8597 239.235 83.171 238.07 72.6329C236.638 59.6731 238.223 51.5512 242.251 50.1219C247.12 48.392 251.018 58.7089 253.177 78.6847C255.501 100.124 253.654 112.516 247.609 112.205ZM271.397 111.83L262.739 68.7592L262.659 68.7762L265.744 97.6282L266.528 97.5998L268.034 111.694L261.023 111.399L259.262 95.0419L260.83 94.9568L257.449 63.4391L255.91 63.8134L254.148 47.4562L263.284 44.297L268.142 75.8204L268.222 75.8091L265.58 43.503L271.602 41.4215L273.511 59.5199L271.199 60.0871L276.698 112.051L271.397 111.83ZM289.027 114.314C284.067 114.059 279.863 100.464 277.335 76.4897C274.806 52.521 276.085 38.1092 280.88 36.402C285.675 34.7005 289.879 48.3013 292.572 74.221C295.265 100.158 293.993 114.57 289.027 114.314ZM312.787 113.571L307.816 88.3493L307.736 88.3549L307.924 113.367L302.612 113.146L294.305 63.9042L293.533 64.0573L290.51 34.8877L297.487 32.4772L300.6 62.6621L304.39 84.1409L304.469 84.1352L302.981 62.1913L302.151 62.3558L299.021 31.9497L305.327 29.7718L308.537 61.091L312.378 83.3865L312.458 83.3808L310.901 60.6259L310.088 60.7847L306.861 29.2386L314.065 26.7488L317.383 59.3384L315.798 59.6504L318.15 113.793L312.787 113.571Z" fill="#204D8F"/>
<path d="M183.192 83.6757C183.056 82.5698 182.681 82.116 182.062 82.2635C181.442 82.4109 181.221 82.9951 181.352 84.0274C181.494 85.1617 181.925 85.7629 182.948 86.3074C183.232 85.2355 183.3 84.5152 183.192 83.6757Z" fill="#204D8F"/>
<path d="M243.996 65.7361C242.706 66.2182 242.774 69.7857 243.155 73.2285C243.53 76.6712 244.814 76.467 245.103 76.3989C245.393 76.3309 245.842 75.3724 246.007 73.2795C245.558 70.5854 245.291 65.254 243.996 65.7361Z" fill="#204D8F"/>
</svg>
