<svg width="399" height="199" viewBox="0 0 399 199" fill="none" xmlns="http://www.w3.org/2000/svg">
<path d="M53.1301 82.265C53.1301 59.38 23.8051 57.31 23.8051 47.19C23.8051 43.97 25.5301 42.36 27.9451 42.36C31.8551 42.36 32.6601 45.81 32.4301 51.79H52.9001C53.5901 39.025 48.3001 25.57 28.4051 25.57C10.2351 25.57 2.41506 36.265 2.41506 49.145C2.41506 70.88 31.7401 73.985 31.7401 84.335C31.7401 87.555 30.3601 89.165 26.9101 89.165C23.3451 89.165 21.1601 86.635 21.5051 78.7H0.920061C6.10352e-05 97.215 7.93506 105.955 27.8301 105.955C45.7701 105.955 53.1301 94.34 53.1301 82.265ZM108.983 57.77V47.535C108.983 34.885 100.243 27.41 88.3982 27.41H57.1182V104H80.2332V77.895H88.3982C100.243 77.895 108.983 70.42 108.983 57.77ZM87.2482 59.15C87.2482 61.795 85.8682 62.83 83.6832 62.83H80.2332V43.74H83.6832C85.8682 43.74 87.2482 44.89 87.2482 47.535V59.15ZM159.391 104V85.37H136.161V73.065H150.996V56.85H136.161V45.12H159.391V27.41H113.046V104H159.391ZM217.05 104L201.87 27.41H175.42L159.895 104H180.71L182.55 93.305H192.9L194.395 104H217.05ZM191.06 79.16H184.85L188.415 56.16L191.06 79.16ZM276.219 104L262.649 61.335L275.644 27.41H252.414L242.064 58.575V27.41H218.949V104H242.064V81.805L244.939 75.48L251.954 104H276.219ZM329.624 82.265C329.624 59.38 300.299 57.31 300.299 47.19C300.299 43.97 302.024 42.36 304.439 42.36C308.349 42.36 309.154 45.81 308.924 51.79H329.394C330.084 39.025 324.794 25.57 304.899 25.57C286.729 25.57 278.909 36.265 278.909 49.145C278.909 70.88 308.234 73.985 308.234 84.335C308.234 87.555 306.854 89.165 303.404 89.165C299.839 89.165 297.654 86.635 297.999 78.7H277.414C276.494 97.215 284.429 105.955 304.324 105.955C322.264 105.955 329.624 94.34 329.624 82.265Z" fill="#204D8F"/>
<path d="M104.765 163.11V119.41H69.2301V160.235C69.2301 169.78 66.5851 173.92 57.0401 173.92C47.4951 173.92 44.6201 169.78 44.6201 160.235V119.41H4.60006V163.11C4.60006 183.12 18.8601 198.875 54.9701 198.875C91.1951 198.875 104.765 183.12 104.765 163.11ZM209.55 146.205V145.055C209.55 131.14 198.395 119.41 175.28 119.41H114.56V196H154.58V172.77H176.2C199.2 172.77 209.55 160.12 209.55 146.205ZM169.07 149.655C169.07 153.68 167.23 155.98 161.25 155.98H154.58V142.985H161.25C167.23 142.985 169.07 145.055 169.07 149.31V149.655Z" fill="#204D8F"/>
</svg>
