<svg width="151" height="60" viewBox="0 0 151 60" fill="none" xmlns="http://www.w3.org/2000/svg">
<path d="M98.0345 35.8622V44.2071H92.0862V35.9485L83.9827 22.8795H90.7069L95.0862 30.3795L99.5 22.8795H106.103L98.0345 35.8622ZM78.3621 60.0002H111.672V12.3967H78.3621V60.0002Z" fill="black"/>
<path d="M134.983 44.6379C133.529 44.6614 132.085 44.3917 130.738 43.845C129.39 43.2983 128.167 42.4858 127.14 41.456C126.113 40.4262 125.305 39.2001 124.762 37.851C124.22 36.5019 123.955 35.0573 123.983 33.6035C123.949 32.1205 124.218 30.6463 124.772 29.2703C125.326 27.8942 126.153 26.6451 127.204 25.5986C128.256 24.5522 129.509 23.7303 130.887 23.1828C132.266 22.6354 133.741 22.3737 135.224 22.4138C136.986 22.3311 138.739 22.6956 140.322 23.4734C141.905 24.2512 143.265 25.417 144.276 26.8621L139.828 30.3103C139.311 29.5493 138.617 28.9244 137.807 28.4891C136.996 28.0538 136.092 27.8209 135.172 27.8103C134.457 27.8227 133.751 27.9805 133.098 28.2742C132.446 28.5679 131.86 28.9914 131.376 29.5188C130.892 30.0462 130.52 30.6665 130.284 31.3421C130.047 32.0176 129.951 32.7342 130 33.4483C129.943 34.1665 130.034 34.8887 130.268 35.5703C130.501 36.252 130.871 36.8786 131.356 37.4117C131.84 37.9448 132.429 38.373 133.085 38.6699C133.742 38.9667 134.452 39.126 135.172 39.1379C136.124 39.1326 137.061 38.8941 137.899 38.4432C138.738 37.9924 139.453 37.343 139.983 36.5517L144.431 39.7241C143.408 41.2722 142.002 42.5289 140.349 43.3719C138.696 44.2149 136.854 44.6155 135 44.5345L134.983 44.6379ZM117.534 59.931H150.862V0H117.534V59.931Z" fill="black"/>
<path d="M66.2241 44.2067H61.0517L51.9482 32.4998V44.2067H46.0862V22.8791H51.6034L60.3448 34.155V22.8791H66.1896L66.2241 44.2067ZM39.1724 59.9308H72.5V7.05151H39.1724V59.9308Z" fill="black"/>
<path d="M7.22408 44.3106H12.3793L16.6379 32.0347L20.9482 44.3106H26.0862L33.2241 22.8278H27.1034L23.3793 35.1727L19.2586 22.7761H14.1724L10.0689 35.1727L6.34477 22.8278H0.103394L7.22408 44.3106Z" fill="black"/>
<path d="M33.3276 49.793H0V59.9309H33.3276V49.793Z" fill="black"/>
</svg>
