<svg width="554" height="198" viewBox="0 0 554 198" fill="none" xmlns="http://www.w3.org/2000/svg">
<path d="M112.949 28.41H73.1593L59.0143 50.72L44.2943 28.41H0.0192845L36.0143 79.01V105H76.0343V79.01L112.949 28.41ZM217.29 67.28V65.9C217.29 43.59 198.085 25.535 165.31 25.535C132.42 25.535 113.215 43.59 113.215 65.9V67.28C113.215 89.475 132.42 107.875 165.31 107.875C198.085 107.875 217.29 89.475 217.29 67.28ZM176.465 67.625C176.465 76.02 174.625 83.84 165.31 83.84C155.995 83.84 154.04 76.02 154.04 67.625V65.67C154.04 57.16 155.995 49.34 165.31 49.34C174.625 49.34 176.465 57.16 176.465 65.67V67.625ZM324.391 72.11V28.41H288.856V69.235C288.856 78.78 286.211 82.92 276.666 82.92C267.121 82.92 264.246 78.78 264.246 69.235V28.41H224.226V72.11C224.226 92.12 238.486 107.875 274.596 107.875C310.821 107.875 324.391 92.12 324.391 72.11ZM434.006 105V28.41H398.011V58.08L395.366 55.205L366.616 28.41H334.186V105H370.066V75.1L372.941 78.435L399.736 105H434.006ZM542.222 105V63.485H494.497V77.055H512.667V77.515C510.137 81.31 505.307 83.84 499.327 83.84C488.862 83.84 482.307 77.63 482.307 68.775V68.085C482.307 58.195 490.357 51.065 503.007 51.065C511.977 51.065 519.682 53.25 528.307 57.16L540.382 34.85C528.652 29.1 514.277 25.535 495.187 25.535C464.482 25.535 441.482 42.325 441.482 66.36V67.74C441.482 92.12 463.447 107.875 490.242 107.875C500.822 107.875 511.057 104.54 518.187 98.1L519.682 105H542.222Z" fill="#204D8F"/>
<path d="M83.2093 196L68.0293 119.41H41.5793L26.0543 196H46.8693L48.7093 185.305H59.0593L60.5543 196H83.2093ZM57.2193 171.16H51.0093L54.5743 148.16L57.2193 171.16ZM159.169 196V119.41H130.419L124.784 146.435L122.829 156.785L120.759 146.435L115.009 119.41H85.1086V196H104.314V154.6L106.959 167.365L112.709 196H127.774L134.099 167.365L136.974 154.6V196H159.169ZM211.302 196V177.37H188.072V165.065H202.907V148.85H188.072V137.12H211.302V119.41H164.957V196H211.302ZM270.686 196V195.655C269.306 191.975 268.041 188.065 268.041 183.235V169.895C268.041 164.835 264.821 160.235 257.921 158.97C265.166 157.13 267.696 152.645 267.696 147.93V136.89C267.696 126.31 258.956 119.41 246.651 119.41H215.831V196H238.831V167.02H241.936C245.386 167.02 246.306 169.32 246.306 171.965V184.155C246.306 189.675 247.916 196 251.136 196H270.686ZM245.731 148.85C245.731 151.61 244.581 152.645 242.281 152.645H238.831V135.74H242.281C244.581 135.74 245.731 136.775 245.731 139.535V148.85ZM296.444 196V119.41H273.444V196H296.444ZM355.554 174.035V166.33H334.049V174.61C334.049 177.6 333.359 180.13 329.564 180.13C325.884 180.13 325.194 177.6 325.194 174.61V140.8C325.194 137.81 325.884 135.28 329.564 135.28C333.359 135.28 334.049 137.81 334.049 140.8V149.08H355.554V141.375C355.554 128.035 346.814 117.455 330.024 117.455C311.279 117.455 301.619 128.495 301.619 142.64V172.77C301.619 186.915 311.279 197.955 330.024 197.955C346.814 197.955 355.554 187.26 355.554 174.035ZM413.048 196L397.868 119.41H371.418L355.893 196H376.708L378.548 185.305H388.898L390.393 196H413.048ZM387.058 171.16H380.848L384.413 148.16L387.058 171.16Z" fill="#204D8F"/>
</svg>
