<svg width="214" height="152" viewBox="0 0 214 152" fill="none" xmlns="http://www.w3.org/2000/svg">
<path d="M44.335 11.03H28.765L23.23 19.76L17.47 11.03H0.145L14.23 30.83V41H29.89V30.83L44.335 11.03ZM85.1641 26.24V25.7C85.1641 16.97 77.6491 9.905 64.8241 9.905C51.9541 9.905 44.4391 16.97 44.4391 25.7V26.24C44.4391 34.925 51.9541 42.125 64.8241 42.125C77.6491 42.125 85.1641 34.925 85.1641 26.24ZM69.1891 26.375C69.1891 29.66 68.4691 32.72 64.8241 32.72C61.1791 32.72 60.4141 29.66 60.4141 26.375V25.61C60.4141 22.28 61.1791 19.22 64.8241 19.22C68.4691 19.22 69.1891 22.28 69.1891 25.61V26.375ZM127.073 28.13V11.03H113.168V27.005C113.168 30.74 112.133 32.36 108.398 32.36C104.663 32.36 103.538 30.74 103.538 27.005V11.03H87.8781V28.13C87.8781 35.96 93.4581 42.125 107.588 42.125C121.763 42.125 127.073 35.96 127.073 28.13ZM169.966 41V11.03H155.881V22.64L154.846 21.515L143.596 11.03H130.906V41H144.946V29.3L146.071 30.605L156.556 41H169.966ZM212.311 41V24.755H193.636V30.065H200.746V30.245C199.756 31.73 197.866 32.72 195.526 32.72C191.431 32.72 188.866 30.29 188.866 26.825V26.555C188.866 22.685 192.016 19.895 196.966 19.895C200.476 19.895 203.491 20.75 206.866 22.28L211.591 13.55C207.001 11.3 201.376 9.905 193.906 9.905C181.891 9.905 172.891 16.475 172.891 25.88V26.42C172.891 35.96 181.486 42.125 191.971 42.125C196.111 42.125 200.116 40.82 202.906 38.3L203.491 41H212.311Z" fill="#204D8F"/>
<path d="M22.915 77L16.975 47.03H6.625L0.55 77H8.695L9.415 72.815H13.465L14.05 77H22.915ZM12.745 67.28H10.315L11.71 58.28L12.745 67.28ZM52.6382 77V47.03H41.3882L39.1832 57.605L38.4182 61.655L37.6082 57.605L35.3582 47.03H23.6582V77H31.1732V60.8L32.2082 65.795L34.4582 77H40.3532L42.8282 65.795L43.9532 60.8V77H52.6382ZM73.0383 77V69.71H63.9483V64.895H69.7533V58.55H63.9483V53.96H73.0383V47.03H54.9033V77H73.0383ZM96.2755 77V76.865C95.7355 75.425 95.2405 73.895 95.2405 72.005V66.785C95.2405 64.805 93.9805 63.005 91.2805 62.51C94.1155 61.79 95.1055 60.035 95.1055 58.19V53.87C95.1055 49.73 91.6855 47.03 86.8705 47.03H74.8105V77H83.8105V65.66H85.0255C86.3755 65.66 86.7355 66.56 86.7355 67.595V72.365C86.7355 74.525 87.3655 77 88.6255 77H96.2755ZM86.5105 58.55C86.5105 59.63 86.0605 60.035 85.1605 60.035H83.8105V53.42H85.1605C86.0605 53.42 86.5105 53.825 86.5105 54.905V58.55ZM106.354 77V47.03H97.3545V77H106.354ZM129.484 68.405V65.39H121.069V68.63C121.069 69.8 120.799 70.79 119.314 70.79C117.874 70.79 117.604 69.8 117.604 68.63V55.4C117.604 54.23 117.874 53.24 119.314 53.24C120.799 53.24 121.069 54.23 121.069 55.4V58.64H129.484V55.625C129.484 50.405 126.064 46.265 119.494 46.265C112.159 46.265 108.379 50.585 108.379 56.12V67.91C108.379 73.445 112.159 77.765 119.494 77.765C126.064 77.765 129.484 73.58 129.484 68.405ZM151.982 77L146.042 47.03H135.692L129.617 77H137.762L138.482 72.815H142.532L143.117 77H151.982ZM141.812 67.28H139.382L140.777 58.28L141.812 67.28Z" fill="#204D8F"/>
<path d="M21.79 105.495C21.79 96.54 10.315 95.73 10.315 91.77C10.315 90.51 10.99 89.88 11.935 89.88C13.465 89.88 13.78 91.23 13.69 93.57H21.7C21.97 88.575 19.9 83.31 12.115 83.31C5.005 83.31 1.945 87.495 1.945 92.535C1.945 101.04 13.42 102.255 13.42 106.305C13.42 107.565 12.88 108.195 11.53 108.195C10.135 108.195 9.28 107.205 9.415 104.1H1.36C1 111.345 4.105 114.765 11.89 114.765C18.91 114.765 21.79 110.22 21.79 105.495ZM43.6456 95.91V91.905C43.6456 86.955 40.2256 84.03 35.5906 84.03H23.3506V114H32.3956V103.785H35.5906C40.2256 103.785 43.6456 100.86 43.6456 95.91ZM35.1406 96.45C35.1406 97.485 34.6006 97.89 33.7456 97.89H32.3956V90.42H33.7456C34.6006 90.42 35.1406 90.87 35.1406 91.905V96.45ZM63.3704 114V106.71H54.2804V101.895H60.0854V95.55H54.2804V90.96H63.3704V84.03H45.2354V114H63.3704ZM85.9326 114L79.9926 84.03H69.6426L63.5676 114H71.7126L72.4326 109.815H76.4826L77.0676 114H85.9326ZM75.7626 104.28H73.3326L74.7276 95.28L75.7626 104.28ZM109.086 114L103.776 97.305L108.861 84.03H99.7708L95.7208 96.225V84.03H86.6758V114H95.7208V105.315L96.8458 102.84L99.5908 114H109.086ZM129.983 105.495C129.983 96.54 118.508 95.73 118.508 91.77C118.508 90.51 119.183 89.88 120.128 89.88C121.658 89.88 121.973 91.23 121.883 93.57H129.893C130.163 88.575 128.093 83.31 120.308 83.31C113.198 83.31 110.138 87.495 110.138 92.535C110.138 101.04 121.613 102.255 121.613 106.305C121.613 107.565 121.073 108.195 119.723 108.195C118.328 108.195 117.473 107.205 117.608 104.1H109.553C109.193 111.345 112.298 114.765 120.083 114.765C127.103 114.765 129.983 110.22 129.983 105.495Z" fill="#204D8F"/>
<path d="M41.995 137.13V120.03H28.09V136.005C28.09 139.74 27.055 141.36 23.32 141.36C19.585 141.36 18.46 139.74 18.46 136.005V120.03H2.8V137.13C2.8 144.96 8.38 151.125 22.51 151.125C36.685 151.125 41.995 144.96 41.995 137.13ZM82.9977 130.515V130.065C82.9977 124.62 78.6327 120.03 69.5877 120.03H45.8277V150H61.4877V140.91H69.9477C78.9477 140.91 82.9977 135.96 82.9977 130.515ZM67.1577 131.865C67.1577 133.44 66.4377 134.34 64.0977 134.34H61.4877V129.255H64.0977C66.4377 129.255 67.1577 130.065 67.1577 131.73V131.865Z" fill="#204D8F"/>
</svg>
