<?xml version="1.0" standalone="no"?>
<!DOCTYPE svg PUBLIC "-//W3C//DTD SVG 20010904//EN"
 "http://www.w3.org/TR/2001/REC-SVG-20010904/DTD/svg10.dtd">
<svg version="1.0" xmlns="http://www.w3.org/2000/svg"
 width="700.000000pt" height="700.000000pt" viewBox="0 0 700.000000 700.000000"
 preserveAspectRatio="xMidYMid meet">
<metadata>
Created by potrace 1.11, written by Peter Selinger 2001-2013
</metadata>
<g transform="translate(0.000000,700.000000) scale(0.100000,-0.100000)"
fill="#000000" stroke="none">
<path d="M5938 6069 c-20 -4 -128 -46 -240 -93 -112 -46 -1319 -544 -2683
-1106 -1364 -562 -2506 -1035 -2538 -1052 -111 -60 -167 -149 -152 -247 4 -25
67 -214 140 -421 73 -206 208 -589 300 -850 178 -504 320 -884 390 -1040 125
-280 233 -377 342 -310 100 61 218 333 308 710 52 220 66 261 95 280 23 15
117 16 1155 9 2323 -14 3416 -13 3465 2 58 17 131 89 148 145 27 92 27 95
-319 2634 -163 1200 -163 1199 -200 1271 -38 75 -99 95 -211 68z"/>
</g>
</svg>
